
<?xml version="1.0" standalone="no"?>
<!DOCTYPE svg PUBLIC "-//W3C//DTD SVG 20010904//EN"
 "http://www.w3.org/TR/2001/REC-SVG-20010904/DTD/svg10.dtd">
<svg version="1.0" xmlns="http://www.w3.org/2000/svg"
 width="512.000000pt" height="512.000000pt" viewBox="0 0 512.000000 512.000000"
 preserveAspectRatio="xMidYMid meet">

<g transform="translate(0.000000,512.000000) scale(0.100000,-0.100000)"
fill="#000000" stroke="none">
<path d="M2250 4884 c-505 -68 -984 -312 -1341 -681 -647 -670 -827 -1652
-458 -2510 323 -754 1042 -1283 1861 -1372 225 -25 518 -9 748 40 241 52 543
179 750 316 579 382 935 950 1032 1643 19 139 16 468 -6 610 -74 491 -286 922
-625 1273 -361 373 -841 615 -1354 682 -147 19 -462 18 -607 -1z m1302 -1367
c63 -25 127 -83 163 -148 l30 -54 3 -686 c2 -678 2 -688 -19 -743 -28 -75 -99
-147 -174 -175 -55 -21 -66 -21 -1060 -21 -994 0 -1005 0 -1060 21 -75 28
-146 100 -174 175 -21 55 -21 65 -19 743 l3 686 27 51 c46 87 123 144 222 164
23 4 484 7 1026 6 926 -1 988 -2 1032 -19z"/>
<path d="M1725 3281 c51 -47 772 -585 785 -585 13 0 804 556 840 590 12 12
-103 14 -815 14 -810 0 -829 0 -810 -19z"/>
<path d="M1480 2566 c0 -583 0 -596 20 -616 20 -20 33 -20 995 -20 962 0 975
0 995 20 20 20 20 33 20 586 0 449 -3 564 -12 558 -7 -4 -231 -163 -498 -352
-267 -190 -490 -345 -495 -345 -6 0 -233 168 -506 374 -272 206 -500 378 -507
383 -9 6 -12 -122 -12 -588z"/>
</g>
</svg>
